Better Than Sex (2000)

He wakes up in her bed. He's Josh, an Australian photographer living in London, on holiday in Sydney, leaving in three days. She's Cinthia (Cin), a dress designer. They've met at a party and shared a cab back to their respective places, they're attracted to each other, he'll be gone in three days (no complications), so he stays the night. Each of them talks to the camera occasionally, commenting on what happens; so do her female friends and his male ones. An omniscient taxi driver also helps out. How will those three days go? What could be better than sex?
 
Format                           : AVI
Format/Info                      : Audio Video Interleave
File size                        : 700 MiB
Duration                         : 1h 23mn
Overall bit rate                 : 1 174 Kbps
Writing application              : VirtualDubMod 1.5.4.1 (build 2178/release)
Writing library                  : VirtualDubMod build 2178/release
Language                         : English
Subtitles                        : English(*.srt)
Genre                            : Drama | Romance

Video
ID                               : 0
Format                           : MPEG-4 Visual
Format profile                   : Advanced Simple@L5
Format settings, BVOP            : No
Format settings, QPel            : No
Format settings, GMC             : No warppoints
Format settings, Matrix          : Custom
Codec ID                         : XVID
Codec ID/Hint                    : XviD
Duration                         : 1h 23mn
Bit rate                         : 1 048 Kbps
Width                            : 608 pixels
Height                           : 336 pixels
Display aspect ratio             : 16:9
Frame rate                       : 23.976 fps
Color space                      : YUV
Chroma subsampling               : 4:2:0
Bit depth                        : 8 bits
Scan type                        : Progressive
Bits/(Pixel*Frame)               : 0.214
Stream size                      : 625 MiB (89%)
Writing library                  : XviD 1.2.1 (UTC 2008-12-04)

Audio
ID                               : 1
Format                           : MPEG Audio
Format version                   : Version 1
Format profile                   : Layer 3
Mode                             : Joint stereo
Mode extension                   : MS Stereo
Codec ID                         : 55
Codec ID/Hint                    : MP3
Duration                         : 1h 23mn
Bit rate mode                    : Variable
Bit rate                         : 113 Kbps
Nominal bit rate                 : 128 Kbps
Channel(s)                       : 2 channels
Sampling rate                    : 48.0 KHz
Stream size                      : 67.3 MiB (10%)
Alignment                        : Aligned on interleaves
Interleave, duration             : 24 ms (0.58 video frame)
Interleave, preload duration     : 163 ms
Writing library                  : LAME3.98r
Encoding settings                : -m j -V 4 -q 2 -lowpass 17 --abr 128
 
http://leetleech.org/images/78705686636494670545.png 
http://leetleech.org/images/91663350084247699263.png 
http://leetleech.org/images/02721985344655120751.png 
http://leetleech.org/images/13183834333439225448.png 
http://leetleech.org/images/81230304189113455574.png 
http://leetleech.org/images/85044407471869640084.png 
http://leetleech.org/images/60564388048190437224.png 
http://leetleech.org/images/03498979198647570621.png
 
http://www.youtube.com/watch?v=Atsmkgg1ugg
 
http://www.imdb.com/title/tt0236019/
 
http://leetleech.org/images/97913465899887526311.png
